<?xml version="1.0" standalone="no"?>
<!DOCTYPE svg PUBLIC "-//W3C//DTD SVG 20010904//EN"
 "http://www.w3.org/TR/2001/REC-SVG-20010904/DTD/svg10.dtd">
<svg version="1.0" xmlns="http://www.w3.org/2000/svg"
 width="500.000000pt" height="500.000000pt" viewBox="0 0 500.000000 500.000000"
 preserveAspectRatio="xMidYMid meet">
<metadata>
Created by potrace 1.11, written by Peter Selinger 2001-2013
</metadata>
<g transform="translate(0.000000,500.000000) scale(0.100000,-0.100000)"
fill="#000000" stroke="none">
<path d="M2177 2833 c-4 -3 -7 -127 -7 -275 l0 -268 60 0 60 0 0 275 0 275
-53 0 c-30 0 -57 -3 -60 -7z"/>
<path d="M2330 2565 l0 -275 60 0 60 0 0 275 0 275 -60 0 -60 0 0 -275z"/>
<path d="M1540 2525 l0 -235 55 0 55 0 0 174 c0 96 3 181 6 190 3 9 15 16 25
16 18 0 19 -10 19 -190 l0 -190 55 0 55 0 0 200 c0 247 -8 270 -90 270 -19 0
-36 -9 -49 -26 l-21 -27 0 27 c0 25 -2 26 -55 26 l-55 0 0 -235z"/>
<path d="M1860 2555 c0 -251 4 -265 87 -265 32 0 46 5 57 22 l16 22 0 -22 c0
-20 5 -22 55 -22 l55 0 0 235 0 235 -55 0 -55 0 0 -184 c0 -153 -3 -186 -15
-196 -10 -8 -19 -10 -25 -4 -5 5 -11 93 -12 194 l-3 185 -52 3 -53 3 0 -206z"/>
<path d="M2743 2745 c-48 -21 -66 -56 -61 -117 6 -55 2 -50 116 -149 43 -37
54 -73 31 -96 -21 -21 -39 -3 -39 38 l0 39 -56 0 -56 0 4 -56 c4 -42 11 -61
30 -81 51 -51 162 -48 210 6 24 26 28 40 28 87 0 72 -18 105 -88 156 -64 47
-72 55 -72 81 0 28 39 21 46 -8 6 -23 11 -25 60 -25 51 0 54 1 54 25 0 90
-109 143 -207 100z"/>
<path d="M2977 2753 c-2 -5 13 -109 33 -233 20 -124 35 -228 33 -232 -2 -5
-17 -8 -34 -8 -27 0 -29 -3 -29 -35 l0 -35 73 0 c44 0 80 5 91 13 13 10 28 71
62 261 24 137 44 255 44 263 0 9 -15 13 -49 13 -59 0 -56 9 -72 -168 -7 -72
-16 -129 -19 -125 -4 5 -12 68 -18 141 -7 74 -14 138 -18 143 -6 11 -91 12
-97 2z"/>
<path d="M3345 2746 c-50 -22 -69 -51 -68 -106 1 -58 13 -77 90 -139 47 -38
59 -53 61 -80 4 -44 -14 -63 -34 -37 -8 11 -14 32 -14 48 0 27 -1 28 -55 28
-53 0 -55 -1 -55 -27 0 -97 46 -143 140 -143 98 0 150 57 137 152 -7 52 -27
80 -97 135 -43 33 -60 53 -60 70 0 16 6 23 20 23 15 0 20 -7 20 -25 0 -24 3
-25 61 -25 l62 0 -7 33 c-8 39 -35 78 -67 94 -31 16 -96 16 -134 -1z"/>
<path d="M2490 2485 l0 -35 80 0 80 0 0 35 0 35 -80 0 -80 0 0 -35z"/>
</g>
</svg>
